<svg id="DIGITALL" xmlns="http://www.w3.org/2000/svg" width="397" height="55.59" viewBox="0 0 397 55.59"><defs><style>.cls-1{fill:#64c7ea;}.cls-2{fill:#1818c0;}</style></defs><path class="cls-1" d="M360.91,55a14.52,14.52,0,0,0,4.73-2.29c-.15-.19-.77-.89-1.33-1.67-.44-.62-1.37-2.14-2-3.25a9.54,9.54,0,0,1-5.14,1.63,9.64,9.64,0,0,1-9.64-9.61,9.74,9.74,0,0,1,3.1-6.94,15.49,15.49,0,0,1,2.15-1.81,18.38,18.38,0,0,1-5.21-3.29,13.93,13.93,0,0,0-1.37,1.29,15.59,15.59,0,0,0-4.18,7A14.61,14.61,0,0,0,342,44a15.29,15.29,0,0,0,4.17,7,15.05,15.05,0,0,0,7,4.1,14.21,14.21,0,0,0,7.76-.07m35.58-43.34a15.34,15.34,0,0,0-4.14-7,15.46,15.46,0,0,0-7-4.14,14.61,14.61,0,0,0-7.87.08,15.21,15.21,0,0,0-4.61,2.21c.59.63,1.36,1.52,1.81,2.11s1.14,1.74,1.7,2.7a9.74,9.74,0,0,1,4.84-1.48A9,9,0,0,1,388,8.93a8.94,8.94,0,0,1,2.81,6.83,10,10,0,0,1-3.14,7,13.42,13.42,0,0,1-2.14,1.77,19.07,19.07,0,0,1,5.24,3.25c.44-.4.89-.81,1.33-1.25a16,16,0,0,0,4.21-7,13.63,13.63,0,0,0,.15-7.8" transform="translate(0 0)"/><path class="cls-2" d="M390.88,39.81a9.68,9.68,0,0,1-9.61,9.65,9.79,9.79,0,0,1-6.95-3.11,14.06,14.06,0,0,1-1.81-2.18,10.36,10.36,0,0,1-1.84-4.91,29.71,29.71,0,0,1,.85-9.16,28.9,28.9,0,0,1,9.16-.85,10.16,10.16,0,0,1,4.91,1.84,15.52,15.52,0,0,1,2.14,1.81,9.66,9.66,0,0,1,3.15,6.91M367,25.59a29.35,29.35,0,0,1-9.2.85,10.09,10.09,0,0,1-5-1.88,15.65,15.65,0,0,1-2.11-1.78,9.91,9.91,0,0,1-3.14-6.94A8.92,8.92,0,0,1,350.35,9a8.92,8.92,0,0,1,6.83-2.81,10,10,0,0,1,6.95,3.14,19.34,19.34,0,0,1,1.77,2.07,10.52,10.52,0,0,1,1.92,5,29.44,29.44,0,0,1-.85,9.2m29.45,10.53a16.16,16.16,0,0,0-4.18-7,15.5,15.5,0,0,0-1.4-1.29,17.82,17.82,0,0,0-5.25-3.25,10.94,10.94,0,0,1-4.95,1.88,30.69,30.69,0,0,1-9.2-.85,29.35,29.35,0,0,1-.85-9.2,10.28,10.28,0,0,1,1.92-5l-.74-1.59a.77.77,0,0,0-.14-.25l-1-1.56s0-.07-.08-.07l-1-1.33a1.43,1.43,0,0,1-.11-.15l-.22-.26-.67-.77c-.18-.19-.37-.37-.55-.59a16.05,16.05,0,0,0-7-4.22,14.61,14.61,0,0,0-7.87-.07,15.51,15.51,0,0,0-7,4.14,15.43,15.43,0,0,0-4.14,7,14.61,14.61,0,0,0,.07,7.87,15.76,15.76,0,0,0,4.22,7c.44.44.88.85,1.33,1.25a18.53,18.53,0,0,0,5.21,3.29,10.63,10.63,0,0,1,4.95-1.88,30.31,30.31,0,0,1,9.19.85,28.9,28.9,0,0,1,.85,9.16,10.26,10.26,0,0,1-1.84,4.91l.11.3c0,.07.07.18.11.26s.41.81.52,1.07l.11.22a4.49,4.49,0,0,0,.37.59,1.43,1.43,0,0,0,.11.15l.63,1c.07.11.14.22.25.37l.08.07c.33.45.66.85,1,1.3h0s.59.66.74.81l.08.07c.11.11.44.45.55.59a15.94,15.94,0,0,0,6.91,4.1,14.51,14.51,0,0,0,7.87,0,16.3,16.3,0,0,0,11.12-11.16,14.81,14.81,0,0,0-.11-7.79" transform="translate(0 0)"/><path class="cls-2" d="M224.55,32.2H211.91l6.36-14.63ZM245.46,53l-21.8-50.4h-10.9L191,53h12l4.7-10.9H228.8L233.49,53Z" transform="translate(0 0)"/><polygon class="cls-2" points="179.03 12.4 193.33 12.4 193.33 2.65 153.5 2.65 153.5 12.4 167.8 12.4 167.8 53.08 179.03 53.08 179.03 12.4"/><rect class="cls-2" x="132.93" y="2.57" width="11.23" height="50.39"/><path class="cls-2" d="M122.88,45.47V25.77H111.57V41.44a19.32,19.32,0,0,1-9.71,2.22,13.69,13.69,0,0,1-10-4.29C89,36.53,87.6,32.68,87.6,28s1.47-8.6,4.39-11.49a14.87,14.87,0,0,1,10.83-4.36A17.14,17.14,0,0,1,109,13.21a22.51,22.51,0,0,1,6.24,4.07l5.84-8.43a27.39,27.39,0,0,0-18.84-7.13,25.76,25.76,0,0,0-18.55,7.5A25,25,0,0,0,76,27.92,24.92,24.92,0,0,0,83.53,46.5a25.6,25.6,0,0,0,18.62,7.35q13.25,0,20.73-8.38" transform="translate(0 0)"/><rect class="cls-2" x="55.2" y="2.57" width="11.23" height="50.39"/><path class="cls-2" d="M34.14,27.81c0,4.95-1.37,8.72-4.14,11.3S23.28,43,18.14,43H11V12.36h6.28c5.73,0,10,1.33,12.71,4s4.14,6.51,4.14,11.46m11.3-.3q0-11.75-7.2-18.36T17.55,2.54H0V52.93H17q14.4,0,21.46-6.84t7-18.58" transform="translate(0 0)"/><polygon class="cls-2" points="252.07 52.97 284.18 52.97 284.18 42.96 263.31 42.96 263.31 2.57 252.07 2.57 252.07 52.97"/><polygon class="cls-2" points="331.36 42.96 326.78 42.96 326.78 42.96 308.41 42.96 308.41 2.57 297.18 2.57 297.18 52.97 329.29 52.97 331.36 52.97 331.36 42.96"/></svg>