<?xml version="1.0" standalone="no"?>
<!DOCTYPE svg PUBLIC "-//W3C//DTD SVG 20010904//EN"
 "http://www.w3.org/TR/2001/REC-SVG-20010904/DTD/svg10.dtd">
<svg version="1.0" xmlns="http://www.w3.org/2000/svg"
 width="2388.000000pt" height="1211.000000pt" viewBox="0 0 2388.000000 1211.000000"
 preserveAspectRatio="xMidYMid meet">

<g transform="translate(0.000000,1211.000000) scale(0.100000,-0.100000)"
fill="#6c63ff" stroke="none">
<path d="M22305 11459 c-127 -19 -151 -29 -473 -179 -96 -44 -215 -99 -265
-121 -104 -46 -303 -138 -452 -210 -55 -26 -156 -72 -225 -102 -69 -30 -138
-62 -155 -71 -47 -25 -405 -192 -476 -221 -35 -15 -95 -44 -134 -65 -38 -21
-110 -55 -159 -75 -128 -52 -306 -134 -616 -282 -80 -38 -197 -92 -260 -119
-63 -26 -162 -73 -219 -102 -58 -29 -123 -61 -145 -69 -23 -9 -113 -49 -201
-90 -88 -41 -203 -94 -255 -118 -52 -24 -186 -87 -298 -139 -111 -53 -205 -96
-208 -96 -4 0 -46 -20 -94 -45 -49 -24 -127 -60 -174 -80 -47 -19 -120 -53
-161 -75 -41 -22 -126 -62 -188 -89 -61 -27 -159 -71 -217 -99 -128 -60 -212
-99 -310 -142 -41 -18 -159 -73 -261 -122 -103 -48 -190 -88 -194 -88 -4 0
-62 -27 -129 -59 -147 -72 -443 -211 -450 -211 -6 0 -267 -120 -396 -182 -58
-28 -122 -57 -143 -64 -21 -7 -111 -49 -200 -93 -89 -43 -263 -125 -387 -181
-124 -56 -239 -110 -256 -119 -17 -10 -71 -35 -120 -55 -49 -21 -161 -73 -249
-116 -88 -43 -239 -113 -335 -155 -96 -42 -218 -98 -270 -125 -53 -27 -145
-70 -205 -95 -169 -72 -318 -140 -791 -364 -95 -45 -175 -81 -179 -81 -3 0
-47 -20 -96 -45 l-90 -45 -47 24 c-26 13 -105 49 -177 81 -71 31 -152 68 -180
82 -27 13 -146 67 -265 119 -118 53 -280 126 -360 164 -154 72 -394 180 -403
180 -3 0 -92 41 -199 91 -106 49 -220 102 -253 116 -33 14 -107 48 -165 76
-58 27 -130 58 -160 69 -30 12 -60 24 -66 29 -11 9 -191 91 -539 245 -104 47
-221 99 -260 116 -38 17 -135 62 -214 100 -79 38 -176 82 -217 98 -41 17 -109
47 -152 69 -42 21 -122 58 -177 81 -55 23 -113 50 -130 60 -16 10 -72 34 -123
54 -51 20 -117 50 -145 66 -29 16 -90 44 -137 63 -124 51 -235 100 -317 141
-40 20 -76 36 -79 36 -4 0 -73 31 -153 69 -80 38 -209 97 -286 131 -77 34
-187 83 -245 110 -58 26 -143 64 -190 85 -47 20 -155 70 -242 111 -86 41 -159
74 -161 74 -3 0 -43 17 -89 38 -88 41 -150 69 -393 178 -82 36 -185 84 -227
105 -43 22 -111 52 -150 68 -61 24 -216 93 -453 201 -22 10 -94 44 -160 75
-66 32 -172 79 -235 105 -63 26 -201 88 -306 139 -105 50 -194 91 -197 91 -3
0 -66 28 -139 61 -145 67 -349 159 -553 249 -71 31 -191 85 -265 120 -74 34
-157 71 -185 82 -27 11 -54 23 -60 27 -13 10 -308 144 -355 161 -19 7 -114 50
-210 96 -214 101 -318 133 -460 141 -328 17 -614 -152 -691 -411 -20 -68 -21
-79 -14 -925 3 -471 8 -1238 10 -1706 11 -2520 16 -3371 20 -3755 2 -234 7
-1001 11 -1705 8 -1716 8 -1759 26 -1820 65 -218 246 -375 488 -425 384 -79
749 107 844 430 15 49 16 145 11 935 -3 484 -7 1146 -10 1470 -3 325 -8 1060
-10 1635 -3 575 -7 1398 -9 1830 -3 432 -8 1270 -12 1862 l-6 1077 143 -60
c79 -33 148 -64 154 -69 5 -4 64 -31 130 -58 66 -28 185 -81 265 -120 80 -38
171 -79 202 -90 32 -12 93 -39 135 -61 99 -49 360 -167 393 -176 14 -4 97 -42
185 -85 88 -43 170 -81 183 -85 13 -3 139 -61 280 -127 141 -66 298 -137 347
-158 98 -41 248 -109 446 -201 70 -32 129 -59 133 -59 4 0 64 -28 134 -61 127
-61 285 -132 522 -235 69 -30 157 -70 196 -89 39 -19 105 -48 145 -64 41 -16
99 -43 129 -59 30 -17 109 -53 175 -80 66 -28 166 -73 222 -101 56 -28 105
-51 108 -51 9 0 218 -91 230 -100 11 -9 336 -155 446 -200 36 -15 103 -47 150
-70 46 -23 113 -53 149 -67 62 -23 216 -94 450 -205 58 -28 159 -74 225 -103
66 -29 163 -73 215 -98 52 -25 131 -60 175 -77 44 -17 105 -45 135 -61 51 -26
172 -82 365 -166 44 -20 144 -64 223 -99 78 -35 208 -94 290 -130 81 -36 221
-101 312 -144 197 -94 359 -167 495 -225 55 -23 153 -68 218 -99 65 -31 147
-68 183 -81 35 -13 102 -42 147 -64 334 -160 456 -208 636 -251 69 -17 198
-22 281 -10 147 20 233 54 758 306 74 35 136 64 138 64 6 0 268 121 399 185
61 29 139 65 175 80 61 25 457 207 670 308 52 24 133 61 180 82 82 35 186 84
560 260 96 45 204 95 240 110 36 16 173 80 305 143 132 62 285 133 340 157
107 46 344 156 565 262 74 36 190 89 257 119 67 29 157 71 200 92 43 21 94 44
113 52 19 7 123 54 230 105 367 174 456 215 463 215 4 0 53 23 110 51 56 28
125 60 152 71 28 10 120 52 205 92 85 41 236 111 335 156 99 46 212 98 250
117 39 19 117 55 175 80 58 25 161 72 229 104 68 32 126 59 130 59 3 -1 60 26
126 59 146 73 427 204 475 221 19 7 85 37 145 65 61 29 187 88 280 132 312
148 469 221 535 248 36 15 105 47 153 71 48 25 111 54 140 65 29 11 105 47
170 79 65 32 128 62 140 66 23 7 259 115 412 189 50 24 133 62 185 85 119 53
305 139 525 242 94 44 193 91 222 105 91 42 196 118 260 186 245 263 160 632
-186 806 -121 62 -318 92 -456 70z"/>
<path fill="#fff" d="M13860 5587 c-315 -92 -500 -293 -500 -541 0 -162 86 -308 248 -423
68 -49 251 -142 414 -212 53 -22 146 -66 207 -96 61 -30 115 -55 121 -55 5 0
70 -29 142 -64 73 -36 161 -76 194 -90 34 -14 104 -48 155 -76 52 -29 114 -60
139 -70 131 -53 201 -85 360 -165 96 -48 202 -98 235 -110 53 -20 188 -86 250
-123 11 -6 54 -25 96 -41 42 -16 117 -50 165 -76 49 -26 116 -57 149 -70 33
-12 103 -44 155 -70 52 -26 112 -54 134 -61 21 -8 94 -43 162 -78 68 -36 148
-74 177 -85 51 -19 217 -96 472 -221 66 -32 167 -80 225 -105 58 -26 124 -58
147 -71 23 -13 47 -24 53 -24 7 0 90 -38 185 -85 96 -47 176 -85 179 -85 6 0
148 -67 436 -206 96 -46 178 -84 182 -84 3 0 95 -43 203 -95 108 -52 198 -95
200 -95 4 0 199 -92 360 -170 66 -32 131 -61 145 -65 14 -4 45 -18 70 -30 25
-13 86 -43 135 -66 50 -23 128 -61 175 -84 47 -23 123 -59 170 -80 47 -21 137
-62 200 -92 63 -31 151 -71 195 -90 44 -20 85 -39 90 -44 6 -4 62 -31 125 -59
63 -28 165 -75 225 -104 61 -29 184 -88 275 -131 91 -43 230 -109 308 -146 79
-38 156 -72 170 -75 15 -4 65 -27 112 -51 128 -67 346 -163 425 -186 96 -29
288 -30 395 -3 237 60 414 218 470 419 24 87 25 130 4 211 -47 183 -174 314
-409 425 -22 10 -107 51 -190 91 -175 84 -320 150 -329 150 -7 0 -120 54 -434
206 -96 46 -178 84 -184 84 -6 0 -36 13 -67 30 -80 42 -432 210 -440 210 -10
0 -99 42 -238 113 -72 37 -138 67 -145 67 -7 0 -75 31 -150 70 -75 38 -159 78
-186 89 -27 11 -102 45 -167 75 -65 31 -119 56 -121 56 -2 0 -50 23 -106 51
-57 28 -148 71 -203 96 -55 25 -149 69 -210 98 -183 88 -294 140 -415 195 -63
29 -159 74 -212 101 -54 27 -102 49 -107 49 -6 0 -89 38 -186 85 -96 47 -177
85 -180 85 -6 0 -216 101 -400 191 -77 38 -143 69 -148 69 -4 0 -89 39 -190
86 -100 48 -218 104 -262 124 -44 21 -143 68 -220 105 -156 75 -290 135 -300
135 -6 0 -66 29 -430 205 -82 40 -161 76 -175 80 -14 4 -65 29 -115 55 -49 26
-119 59 -155 73 -36 14 -105 48 -155 75 -49 27 -121 61 -160 75 -38 15 -124
53 -190 86 -167 82 -503 241 -510 241 -7 0 -354 164 -435 205 -25 13 -85 40
-133 60 -49 20 -105 45 -125 55 -20 11 -77 34 -127 51 -83 30 -102 33 -235 36
-99 2 -159 -1 -190 -10z"/>
</g>
</svg>
