<?xml version="1.0" encoding="utf-8"?>
<svg data-name="Layer 1" width="853.29744" height="818" viewBox="0 0 853.29744 818" xmlns="http://www.w3.org/2000/svg" xmlns:xlink="http://www.w3.org/1999/xlink">
  <defs>
    <linearGradient id="fe5e6308-1e89-4ce8-8c8d-e7ed4a72d158-909" x1="689.87057" y1="396.55769" x2="776.68053" y2="396.55769" gradientUnits="userSpaceOnUse">
      <stop offset="0" stop-color="#fff"/>
      <stop offset="1" stop-color="#fff" stop-opacity="0.3"/>
    </linearGradient>
    <linearGradient id="b0adbdce-87b5-465c-b00c-1cf2f5493111-910" x1="631.27384" y1="535.45364" x2="718.08381" y2="535.45364" xlink:href="#fe5e6308-1e89-4ce8-8c8d-e7ed4a72d158-909"/>
  </defs>
  <path d="M880.85249,505.2494C773.13547,668.24287,722.473,859,527.10189,859S173.35128,700.62046,173.35128,505.2494,349.88639,233.74549,527.10189,151.49879C1102.708-115.64322,1121.87492,140.543,880.85249,505.2494Z" fill="#3f3d56" transform="translate(-173.35128 -41)"/>
  <circle cx="669.52185" cy="94.22192" r="66.1926" fill="#e6e6e6"/>
  <circle cx="663.0111" cy="48.64669" r="7.59587" fill="#cbcbcb"/>
  <circle cx="676.0326" cy="124.60541" r="7.59587" fill="#cbcbcb"/>
  <circle cx="705.33096" cy="82.28555" r="5.42562" fill="#cbcbcb"/>
  <circle cx="643.47886" cy="99.64754" r="17.36199" fill="#cbcbcb"/>
  <circle cx="441.64569" cy="196.22363" r="10.85125" fill="#6c66f1"/>
  <circle cx="732.45907" cy="224.43687" r="10.85125" fill="#6c66f1"/>
  <circle cx="603.32925" cy="245.05424" r="6.51075" fill="#e6e6e6"/>
  <circle cx="102.00171" cy="450.14278" r="6.51075" fill="#e6e6e6"/>
  <circle cx="487.22092" cy="624.84783" r="6.51075" fill="#e6e6e6"/>
  <polygon points="589.224 438.245 585.975 441.473 582.747 438.223 580.581 440.375 583.808 443.625 580.558 446.852 582.71 449.019 585.96 445.791 589.188 449.041 591.354 446.889 588.126 443.639 591.376 440.412 589.224 438.245" fill="#6c66f1"/>
  <polygon points="158.43 544.588 155.18 547.815 151.953 544.565 149.786 546.717 153.014 549.967 149.764 553.194 151.916 555.361 155.165 552.133 158.393 555.383 160.56 553.231 157.332 549.982 160.582 546.754 158.43 544.588" fill="#e6e6e6"/>
  <polygon points="184.473 355.776 181.223 359.003 177.996 355.754 175.829 357.905 179.057 361.155 175.807 364.383 177.959 366.549 181.208 363.322 184.436 366.571 186.603 364.42 183.375 361.17 186.625 357.942 184.473 355.776" fill="#e6e6e6"/>
  <polygon points="751.993 155.028 748.743 158.255 745.516 155.006 743.349 157.157 746.577 160.407 743.327 163.635 745.479 165.801 748.729 162.574 751.956 165.823 754.123 163.672 750.895 160.422 754.145 157.194 751.993 155.028" fill="#e6e6e6"/>
  <polygon points="495.904 245.093 492.654 248.321 489.426 245.071 487.26 247.223 490.487 250.472 487.238 253.7 489.389 255.867 492.639 252.639 495.867 255.889 498.033 253.737 494.806 250.487 498.055 247.26 495.904 245.093" fill="#e6e6e6"/>
  <path d="M691.79334,446.99143l32.97058-38.59855,32.97057-38.59855,18.61242-21.7895c1.02981-1.2056-.55938-3.08643-1.58915-1.88088L741.78719,384.7225l-32.97057,38.59855L690.2042,445.11056c-1.02982,1.2056.55937,3.08642,1.58914,1.88087Z" transform="translate(-173.35128 -41)" opacity="0.8" fill="url(#fe5e6308-1e89-4ce8-8c8d-e7ed4a72d158-909)"/>
  <path d="M633.19662,585.88737l32.97057-38.59855,32.97057-38.59855,18.61242-21.7895c1.02981-1.2056-.55937-3.08643-1.58915-1.88087l-32.97057,38.59855L650.21989,562.217l-18.61242,21.7895c-1.02981,1.2056.55937,3.08643,1.58915,1.88087Z" transform="translate(-173.35128 -41)" opacity="0.8" fill="url(#b0adbdce-87b5-465c-b00c-1cf2f5493111-910)"/>
  <g transform="matrix(0.967695, -0.252139, 0.252139, 0.967695, -112.35434, 97.932838)">
    <path d="M 293.526 331.322 L 355.378 331.322 C 355.378 331.322 355.378 331.322 355.378 331.322 L 355.378 355.66 C 355.378 364.392 348.299 371.471 339.567 371.471 L 309.337 371.471 C 300.605 371.471 293.526 364.392 293.526 355.66 L 293.526 331.322 C 293.526 331.322 293.526 331.322 293.526 331.322 Z" fill="#2f2e41"/>
    <path d="M 375.996 654.689 C 361.911 668.959 347.804 669.055 333.676 655.149 L 322.825 559.198 L 315.229 655.349 C 301.11 666.776 287.953 668.315 276.164 655.774 C 264.919 572.699 258.806 495.52 268.568 436.579 L 247.951 353.024 L 294.611 331.322 C 304.008 354.565 289.188 366.453 322.7 366.055 C 355.916 365.661 353.435 353.166 352.123 331.322 L 395.046 347.831 C 402.634 350.749 406.641 359.068 404.193 366.82 L 382.506 435.494 C 390.855 470.16 382.283 566.594 375.996 654.689 Z" fill="#e6e6e6"/>
    <path d="M 310.888 738.243 C 310.888 738.243 276.248 741.278 271.607 739.367 C 271.314 739.246 271.029 739.115 270.752 738.973 C 263.856 735.452 263.646 725.591 270.091 721.3 L 283.76 712.2 L 271.824 648.178 L 317.942 648.721 L 310.888 738.243 Z" fill="#2f2e41"/>
    <path d="M 336.931 738.786 C 336.931 738.786 371.572 741.82 376.212 739.91 C 376.505 739.789 376.79 739.658 377.067 739.516 C 383.964 735.995 384.174 726.134 377.728 721.843 L 364.059 712.743 L 380.879 648.721 L 332.591 648.721 L 336.931 738.786 Z" fill="#2f2e41"/>
    <path d="M 255.547 510.367 L 262.413 537.833 C 264.144 544.757 261.242 552.01 255.212 555.829 C 244.86 562.385 231.22 555.809 229.903 543.626 L 228.419 529.899 L 222.993 399.444 C 222.993 377.255 236.355 357.25 256.852 348.751 L 267.483 344.343 L 255.547 510.367 Z" fill="#e6e6e6"/>
    <path d="M 428.082 398.361 L 428.049 399.131 L 423.665 504.432 L 422.819 524.778 L 422.656 528.814 L 421.169 542.541 C 419.801 555.208 405.233 561.643 394.948 554.125 C 389.511 550.151 387.025 543.279 388.659 536.747 L 395.528 509.282 L 395.376 507.242 L 394.465 494.481 L 383.592 343.258 L 394.226 347.664 C 414.708 356.181 428.062 376.178 428.082 398.361 L 428.082 398.361 Z" fill="#e6e6e6"/>
    <path d="M 327.225 518.191 C 287.808 518.191 263.493 504.521 263.15 504.323 L 264.234 502.443 C 264.718 502.723 313.483 530.076 385.128 506.366 L 385.811 508.426 C 366.932 514.8 347.151 518.097 327.225 518.191 Z" fill="#2f2e41"/>
    <path d="M 288.194 618.235 C 279.519 598.717 279.475 513.883 279.478 510.281 L 281.648 510.283 C 281.648 511.161 281.688 598.254 290.178 617.354 L 288.194 618.235 Z" fill="#2f2e41"/>
    <path d="M 292.706 619.111 C 284.979 619.111 279.845 617.465 276.497 615.578 C 270.403 612.141 269.146 607.458 269.096 607.261 L 271.198 606.723 L 270.147 606.992 L 271.196 606.718 C 271.24 606.882 272.338 610.78 277.659 613.741 C 283.519 617 295.314 619.432 318.218 612.506 L 318.845 614.583 C 307.884 617.897 299.34 619.111 292.706 619.111 Z" fill="#2f2e41"/>
    <rect x="448.667" y="382.625" width="2.171" height="170.164" transform="matrix(0.998803, -0.048917, 0.048917, 0.998803, -195.69162, -18.43964)" fill="#2f2e41"/>
    <path d="M 361.796 618.235 L 359.812 617.354 C 368.301 598.254 368.343 511.161 368.342 510.283 L 370.512 510.281 C 370.514 513.883 370.47 598.717 361.796 618.235 Z" fill="#2f2e41"/>
    <path d="M 357.284 619.111 C 350.65 619.111 342.108 617.898 331.144 614.583 L 331.772 612.506 C 354.676 619.431 366.468 617.001 372.33 613.741 C 377.652 610.78 378.749 606.882 378.792 606.718 L 380.894 607.261 C 380.843 607.458 379.586 612.141 373.492 615.578 C 370.145 617.465 365.009 619.111 357.284 619.111 Z" fill="#2f2e41"/>
    <rect x="461.858" y="466.622" width="170.164" height="2.171" transform="matrix(0.048818, -0.998808, 0.998808, 0.048818, -120.26149, 950.162842)" fill="#2f2e41"/>
    <polygon points="355.248 367.131 339.101 391.003 304.377 391.003 292.767 367.131 297.867 367.131 306.548 386.663 335.846 386.663 349.953 367.131 355.248 367.131" fill="#6c66f1"/>
    <polygon points="394.443 379.067 394.725 379.631 394.443 380.152 394.443 379.067"/>
    <path d="M 430.252 398.361 L 430.219 399.131 L 409.635 405.11 L 396.895 379.631 L 409.928 355.737 C 422.789 366.148 430.259 381.813 430.252 398.361 Z" fill="#6c66f1"/>
    <path d="M 221.658 398.361 L 221.691 399.131 L 242.276 405.11 L 255.015 379.631 L 241.983 355.737 C 229.121 366.148 221.652 381.813 221.658 398.361 Z" fill="#6c66f1"/>
    <circle cx="324.452" cy="291.715" r="57.512" fill="#e6e6e6"/>
    <circle cx="324.452" cy="299.31" r="42.32" fill="#2f2e41"/>
    <polygon points="424.284 504.432 423.403 524.778 395.571 509.825 394.849 507.242 393.9 494.481 424.284 504.432" fill="#6c66f1"/>
    <polygon points="226.324 504.432 227.25 524.778 256.503 509.825 257.263 507.242 258.26 494.481 226.324 504.432" fill="#6c66f1"/>
    <polygon points="339.678 392.089 303.698 392.089 283.777 351.139 282.753 336.41 284.918 336.26 285.913 350.568 305.057 389.918 338.525 389.918 363.075 353.628 368.301 337.605 370.366 338.277 364.958 354.718 339.678 392.089" fill="#2f2e41"/>
  </g>
</svg>