<?xml version="1.0" encoding="utf-8"?>
<svg data-name="Layer 1" width="614.24714" height="528.65003" viewBox="0 50.367 470.516 459.227" xmlns="http://www.w3.org/2000/svg">
  <circle cx="45" cy="423.69547" r="45" fill="#f0f0f0"/>
  <path d="M735.529,453.21515,409.42085,602.93776a19.27705,19.27705,0,0,1-25.53338-9.465L303.412,418.19049a19.27736,19.27736,0,0,1,9.465-25.53338L638.98509,242.9345a19.27735,19.27735,0,0,1,25.53337,9.465L744.994,427.68177A19.27705,19.27705,0,0,1,735.529,453.21515Z" transform="translate(-292.87643 -185.67498)" fill="#fff"/>
  <path d="M318.30109,404.47143a6.26246,6.26246,0,0,0-3.07482,8.29487L395.7018,588.04862a6.26245,6.26245,0,0,0,8.29486,3.07482L730.10484,441.40082a6.26245,6.26245,0,0,0,3.07482-8.29486L652.70414,257.82364a6.26246,6.26246,0,0,0-8.29487-3.07482Z" transform="translate(-292.87643 -185.67498)" fill="#e4e4e4"/>
  <path d="M735.529,453.21515,409.42085,602.93776a19.27705,19.27705,0,0,1-25.53338-9.465L303.412,418.19049a19.27736,19.27736,0,0,1,9.465-25.53338L638.98509,242.9345a19.27735,19.27735,0,0,1,25.53337,9.465L744.994,427.68177A19.27705,19.27705,0,0,1,735.529,453.21515ZM313.7114,394.4747a17.27491,17.27491,0,0,0-8.48186,22.8813l80.47552,175.28231a17.27491,17.27491,0,0,0,22.8813,8.48186L734.69454,451.39756a17.27492,17.27492,0,0,0,8.48186-22.8813L662.70087,253.234a17.2749,17.2749,0,0,0-22.88129-8.48186Z" transform="translate(-292.87643 -185.67498)" fill="#cacaca"/>
  <path d="M 361.166 188 L 102.093 306.945 C 97.818 308.901 92.775 307.964 89.488 304.603 L 13.688 226.87 C 8.325 221.37 10.019 212.217 16.997 209.002 L 349.015 55.947 C 355.887 52.781 363.847 57.251 364.72 64.767 L 364.765 64.766 L 367.645 177.608 C 367.762 182.057 365.212 186.146 361.166 188 Z M 349.864 57.758 L 17.834 210.818 C 12.111 213.455 10.721 220.962 15.12 225.474 L 90.92 303.206 C 93.616 305.963 97.752 306.732 101.258 305.128 L 360.332 186.182 C 363.65 184.662 365.741 181.308 365.645 177.658 L 362.791 65.817 L 363.19 65.807 L 362.791 65.817 C 362.623 59.269 355.816 55.026 349.864 57.758 Z" fill="#cacaca"/>
  <path d="M491.58023,534.58773l-80.71652,37.05853a4.90689,4.90689,0,1,1-4.09475-8.9187L487.48548,525.669a4.90689,4.90689,0,0,1,4.09475,8.9187Z" transform="translate(-292.87643 -185.67498)" fill="#fff"/>
  <path d="M550.63063,420.05309a25.22024,25.22024,0,1,1-45.84,21.046" transform="translate(-292.87643 -185.67498)" fill="#cacaca"/>
  <path d="M732.62106,691.62827H373.78488a19.277,19.277,0,0,1-19.25537-19.25537V479.49936A19.27735,19.27735,0,0,1,373.78488,460.244H732.62106a19.27735,19.27735,0,0,1,19.25537,19.25537V672.3729A19.277,19.277,0,0,1,732.62106,691.62827Z" transform="translate(-292.87643 -185.67498)" fill="#fff"/>
  <path d="M373.78488,473.244a6.26246,6.26246,0,0,0-6.25537,6.25537V672.3729a6.26246,6.26246,0,0,0,6.25537,6.25537H732.62106a6.26246,6.26246,0,0,0,6.25537-6.25537V479.49936a6.26246,6.26246,0,0,0-6.25537-6.25537Z" transform="translate(-292.87643 -185.67498)" fill="#6c63ff"/>
  <path d="M732.62106,691.62827H373.78488a19.277,19.277,0,0,1-19.25537-19.25537V479.49936A19.27735,19.27735,0,0,1,373.78488,460.244H732.62106a19.27735,19.27735,0,0,1,19.25537,19.25537V672.3729A19.277,19.277,0,0,1,732.62106,691.62827ZM373.78488,462.244a17.2749,17.2749,0,0,0-17.25537,17.25537V672.3729a17.2749,17.2749,0,0,0,17.25537,17.25537H732.62106a17.2749,17.2749,0,0,0,17.25537-17.25537V479.49936A17.2749,17.2749,0,0,0,732.62106,462.244Z" transform="translate(-292.87643 -185.67498)" fill="#3f3d56"/>
  <path d="M691.75436,585.34262H406.68063a11.14658,11.14658,0,0,1-10.47778-7.38818l-36.45264-102.27a11.12377,11.12377,0,0,1,10.4624-14.8584l365.59717-.562a11.12473,11.12473,0,0,1,10.59277,14.56836l.041.01758L701.97848,578.60141A11.11021,11.11021,0,0,1,691.75436,585.34262ZM735.8254,462.264l-365.6101.562a9.12351,9.12351,0,0,0-8.58118,12.18653l36.45251,102.27a9.142,9.142,0,0,0,8.594,6.06006H691.75436a9.11257,9.11257,0,0,0,8.38574-5.52929l44.07105-102.832.36718.15771-.36718-.15771A9.12385,9.12385,0,0,0,735.8254,462.264Z" transform="translate(-292.87643 -185.67498)" fill="#3f3d56"/>
  <path d="M476.96954,663.79276H388.15236a4.90689,4.90689,0,1,1,0-9.81378h88.81718a4.90689,4.90689,0,1,1,0,9.81378Z" transform="translate(-292.87643 -185.67498)" fill="#fff"/>
  <path d="M578.42321,584.34286a25.22024,25.22024,0,0,1-50.44048,0" transform="translate(-292.87643 -185.67498)" fill="#3f3d56"/>
  <circle cx="126" cy="99.69547" r="9" fill="#f0f0f0"/>
  <circle cx="9" cy="315.69547" r="9" fill="#f0f0f0"/>
  <circle cx="459" cy="146.69547" r="9" fill="#f0f0f0"/>
</svg>