<?xml version="1.0" encoding="utf-8"?>
<svg data-name="Layer 1" width="850.53801" height="740.82953" viewBox="0 0 850.53801 740.82953" xmlns="http://www.w3.org/2000/svg">
  <path d="M 766.028 384.473 C 766.14 475.89 730.744 563.789 667.289 629.693 C 663.462 633.691 659.533 637.595 655.501 641.402 C 649.358 647.234 643.009 652.842 636.451 658.224 C 575.123 708.668 498.56 737.014 419.114 738.691 C 416.466 738.751 413.808 738.782 411.142 738.782 C 347.782 738.782 268.091 704.994 195.77 658.224 C 189.787 654.354 183.858 650.393 177.98 646.348 C 175.233 644.472 172.499 642.57 169.78 640.642 C 141.888 620.98 115.412 599.385 90.547 576.021 C 74.268 560.769 59.004 544.473 44.847 527.237 C -10.72 458.807 -22.975 397.148 56.246 384.473 C 65.626 382.977 74.727 381.378 83.555 379.678 C 96.341 377.223 108.578 374.574 120.265 371.729 C 136.007 367.91 150.796 363.767 164.635 359.302 C 169.289 357.806 173.84 356.282 178.28 354.726 C 243.947 331.698 287.897 301.673 317.815 269.093 C 322.889 263.578 327.569 257.997 331.85 252.35 C 338.4 243.753 344.351 234.716 349.661 225.305 C 356.986 212.228 363.14 198.528 368.05 184.368 L 368.319 183.59 C 392.124 115.04 384.882 51.457 411.142 30.176 C 523.398 -60.802 663.152 68.759 728.75 221.545 C 732.057 229.245 735.165 236.988 738.079 244.779 C 739.389 248.261 740.65 251.748 741.866 255.243 C 745.063 264.346 747.961 273.474 750.564 282.626 C 751.565 286.116 752.517 289.603 753.422 293.086 C 754.391 296.846 755.321 300.595 756.18 304.345 C 762.563 331.799 766.028 358.873 766.028 384.473 Z" fill="#f2f2f2" style=""/>
  <path d="M601.82894,259.63486h-22.26a2.601,2.601,0,0,0-2.59985,2.59985v22.27a2.59264,2.59264,0,0,0,2.59985,2.59009h22.26a2.59918,2.59918,0,0,0,2.6001-2.59009v-22.27A2.60761,2.60761,0,0,0,601.82894,259.63486Z" transform="translate(-174.73099 -79.58524)" fill="#fff"/>
  <path d="M601.82894,297.58481h-22.26a2.60105,2.60105,0,0,0-2.59985,2.6v22.27a2.59253,2.59253,0,0,0,2.59985,2.59h22.26a2.59907,2.59907,0,0,0,2.6001-2.59v-22.27A2.60763,2.60763,0,0,0,601.82894,297.58481Z" transform="translate(-174.73099 -79.58524)" fill="#e6e6e6"/>
  <path d="M601.82894,335.53476h-22.26a2.60116,2.60116,0,0,0-2.59985,2.6001v22.26a2.59464,2.59464,0,0,0,2.59985,2.59985h22.26a2.60116,2.60116,0,0,0,2.6001-2.59985v-22.26A2.60774,2.60774,0,0,0,601.82894,335.53476Z" transform="translate(-174.73099 -79.58524)" fill="#e6e6e6"/>
  <path d="M604.389,375.62485a2.61714,2.61714,0,0,0-2.56006-2.14014h-22.26a2.60124,2.60124,0,0,0-2.59985,2.6001v22.26a2.59474,2.59474,0,0,0,2.59985,2.6h22.26a2.60126,2.60126,0,0,0,2.6001-2.6v-22.26A2.31271,2.31271,0,0,0,604.389,375.62485Z" transform="translate(-174.73099 -79.58524)" fill="#e6e6e6"/>
  <path d="M602.839,411.63486a2.634,2.634,0,0,0-1.01-.20008h-22.26a2.59475,2.59475,0,0,0-2.59985,2.6v22.26a2.58836,2.58836,0,0,0,2.59985,2.6001h22.26a2.60137,2.60137,0,0,0,2.6001-2.6001v-22.26A2.61575,2.61575,0,0,0,602.839,411.63486Z" transform="translate(-174.73099 -79.58524)" fill="#e6e6e6"/>
  <path d="M648.589,259.63486h-22.26a2.601,2.601,0,0,0-2.59985,2.59985v22.27a2.59264,2.59264,0,0,0,2.59985,2.59009h22.26a2.59918,2.59918,0,0,0,2.6001-2.59009v-22.27A2.60761,2.60761,0,0,0,648.589,259.63486Z" transform="translate(-174.73099 -79.58524)" fill="#e6e6e6"/>
  <path d="M648.589,297.58481h-22.26a2.60105,2.60105,0,0,0-2.59985,2.6v22.27a2.59253,2.59253,0,0,0,2.59985,2.59h22.26a2.59907,2.59907,0,0,0,2.6001-2.59v-22.27A2.60763,2.60763,0,0,0,648.589,297.58481Z" transform="translate(-174.73099 -79.58524)" fill="#6c63ff"/>
  <path d="M648.589,335.53476h-22.26a2.60116,2.60116,0,0,0-2.59985,2.6001v22.26a2.59464,2.59464,0,0,0,2.59985,2.59985h22.26a2.60116,2.60116,0,0,0,2.6001-2.59985v-22.26A2.60774,2.60774,0,0,0,648.589,335.53476Z" transform="translate(-174.73099 -79.58524)" fill="#6c63ff"/>
  <path d="M648.589,373.48471h-22.26a2.59261,2.59261,0,0,0-2.46,1.78,2.47846,2.47846,0,0,0-.13989.82007v22.26a2.59474,2.59474,0,0,0,2.59985,2.6h22.26a2.60126,2.60126,0,0,0,2.6001-2.6v-22.26A2.60782,2.60782,0,0,0,648.589,373.48471Z" transform="translate(-174.73099 -79.58524)" fill="#6c63ff"/>
  <path d="M648.589,411.43478h-22.26a2.59475,2.59475,0,0,0-2.59985,2.6v22.26a2.59485,2.59485,0,0,0,2.59985,2.6001h22.26a2.60137,2.60137,0,0,0,2.6001-2.6001v-22.26A2.60127,2.60127,0,0,0,648.589,411.43478Z" transform="translate(-174.73099 -79.58524)" fill="#e6e6e6"/>
  <path d="M695.349,259.63486h-22.26a2.601,2.601,0,0,0-2.59985,2.59985v22.27a2.59264,2.59264,0,0,0,2.59985,2.59009h22.26a2.59918,2.59918,0,0,0,2.6001-2.59009v-22.27A2.60761,2.60761,0,0,0,695.349,259.63486Z" transform="translate(-174.73099 -79.58524)" fill="#6c63ff"/>
  <path d="M695.349,297.58481h-22.26a2.60105,2.60105,0,0,0-2.59985,2.6v22.27a2.59253,2.59253,0,0,0,2.59985,2.59h22.26a2.59907,2.59907,0,0,0,2.6001-2.59v-22.27A2.60763,2.60763,0,0,0,695.349,297.58481Z" transform="translate(-174.73099 -79.58524)" fill="#6c63ff"/>
  <path d="M695.349,335.53476h-22.26a2.60116,2.60116,0,0,0-2.59985,2.6001v22.26a2.59464,2.59464,0,0,0,2.59985,2.59985h22.26a2.60116,2.60116,0,0,0,2.6001-2.59985v-22.26A2.60774,2.60774,0,0,0,695.349,335.53476Z" transform="translate(-174.73099 -79.58524)" fill="#e6e6e6"/>
  <path d="M695.349,373.48471h-22.26a2.60124,2.60124,0,0,0-2.59985,2.6001v22.26a2.59474,2.59474,0,0,0,2.59985,2.6h22.26a2.60126,2.60126,0,0,0,2.6001-2.6v-22.26A2.60782,2.60782,0,0,0,695.349,373.48471Z" transform="translate(-174.73099 -79.58524)" fill="#6c63ff"/>
  <path d="M695.349,411.43478h-22.26a2.59475,2.59475,0,0,0-2.59985,2.6v22.26a2.59485,2.59485,0,0,0,2.59985,2.6001h22.26a2.60137,2.60137,0,0,0,2.6001-2.6001v-22.26A2.60127,2.60127,0,0,0,695.349,411.43478Z" transform="translate(-174.73099 -79.58524)" fill="#6c63ff"/>
  <path d="M742.109,259.63486h-22.26a2.60113,2.60113,0,0,0-2.6,2.59985v22.27a2.59275,2.59275,0,0,0,2.6,2.59009h22.26a2.59918,2.59918,0,0,0,2.6001-2.59009v-22.27A2.60761,2.60761,0,0,0,742.109,259.63486Z" transform="translate(-174.73099 -79.58524)" fill="#6c63ff"/>
  <path d="M742.109,297.58481h-22.26a2.60116,2.60116,0,0,0-2.6,2.6v22.27a2.59264,2.59264,0,0,0,2.6,2.59h22.26a2.59907,2.59907,0,0,0,2.6001-2.59v-22.27A2.60763,2.60763,0,0,0,742.109,297.58481Z" transform="translate(-174.73099 -79.58524)" fill="#fff"/>
  <path d="M742.109,335.53476h-22.26a2.60126,2.60126,0,0,0-2.6,2.6001v22.26a2.59474,2.59474,0,0,0,2.6,2.59985h22.26a2.60116,2.60116,0,0,0,2.6001-2.59985v-22.26A2.60774,2.60774,0,0,0,742.109,335.53476Z" transform="translate(-174.73099 -79.58524)" fill="#fff"/>
  <path d="M742.109,373.48471h-22.26a2.60134,2.60134,0,0,0-2.6,2.6001v22.26a2.59485,2.59485,0,0,0,2.6,2.6h22.26a2.60126,2.60126,0,0,0,2.6001-2.6v-22.26A2.60782,2.60782,0,0,0,742.109,373.48471Z" transform="translate(-174.73099 -79.58524)" fill="#e6e6e6"/>
  <path d="M742.109,411.43478h-22.26a2.59485,2.59485,0,0,0-2.6,2.6v22.26a2.595,2.595,0,0,0,2.6,2.6001h22.26a2.60137,2.60137,0,0,0,2.6001-2.6001v-22.26A2.60127,2.60127,0,0,0,742.109,411.43478Z" transform="translate(-174.73099 -79.58524)" fill="#6c63ff"/>
  <path d="M788.869,259.63486h-22.27a2.599,2.599,0,0,0-2.59,2.59985v22.27a2.59059,2.59059,0,0,0,2.59,2.59009h22.27a2.59918,2.59918,0,0,0,2.6001-2.59009v-22.27A2.60761,2.60761,0,0,0,788.869,259.63486Z" transform="translate(-174.73099 -79.58524)" fill="#fff"/>
  <path d="M788.869,297.58481h-22.27a2.599,2.599,0,0,0-2.59,2.6v22.27a2.59048,2.59048,0,0,0,2.59,2.59h22.27a2.59907,2.59907,0,0,0,2.6001-2.59v-22.27A2.60763,2.60763,0,0,0,788.869,297.58481Z" transform="translate(-174.73099 -79.58524)" fill="#fff"/>
  <path d="M788.869,335.53476h-22.27a2.59915,2.59915,0,0,0-2.59,2.6001v22.26a2.59261,2.59261,0,0,0,2.59,2.59985h22.27a2.60116,2.60116,0,0,0,2.6001-2.59985v-22.26A2.60774,2.60774,0,0,0,788.869,335.53476Z" transform="translate(-174.73099 -79.58524)" fill="#fff"/>
  <path d="M788.869,373.48471h-22.27a2.59923,2.59923,0,0,0-2.59,2.6001v22.26a2.59271,2.59271,0,0,0,2.59,2.6h22.27a2.60126,2.60126,0,0,0,2.6001-2.6v-22.26A2.60782,2.60782,0,0,0,788.869,373.48471Z" transform="translate(-174.73099 -79.58524)" fill="#6c63ff"/>
  <path d="M788.869,411.43478h-22.27a2.59272,2.59272,0,0,0-2.59,2.6v22.26a2.59282,2.59282,0,0,0,2.59,2.6001h22.27a2.60137,2.60137,0,0,0,2.6001-2.6001v-22.26A2.60127,2.60127,0,0,0,788.869,411.43478Z" transform="translate(-174.73099 -79.58524)" fill="#e6e6e6"/>
  <path d="M835.629,259.63486h-22.27a2.599,2.599,0,0,0-2.59,2.59985v22.27a2.59059,2.59059,0,0,0,2.59,2.59009h22.27a2.59927,2.59927,0,0,0,2.6001-2.59009v-22.27A2.60769,2.60769,0,0,0,835.629,259.63486Z" transform="translate(-174.73099 -79.58524)" fill="#fff"/>
  <path d="M835.629,297.58481h-22.27a2.599,2.599,0,0,0-2.59,2.6v22.27a2.59048,2.59048,0,0,0,2.59,2.59h22.27a2.59916,2.59916,0,0,0,2.6001-2.59v-22.27A2.60772,2.60772,0,0,0,835.629,297.58481Z" transform="translate(-174.73099 -79.58524)" fill="#fff"/>
  <path d="M835.629,335.53476h-22.27a2.59915,2.59915,0,0,0-2.59,2.6001v22.26a2.59261,2.59261,0,0,0,2.59,2.59985h22.27a2.60124,2.60124,0,0,0,2.6001-2.59985v-22.26A2.60782,2.60782,0,0,0,835.629,335.53476Z" transform="translate(-174.73099 -79.58524)" fill="#6c63ff"/>
  <path d="M835.629,373.48471h-22.27a2.59923,2.59923,0,0,0-2.59,2.6001v22.26a2.59271,2.59271,0,0,0,2.59,2.6h22.27a2.60134,2.60134,0,0,0,2.6001-2.6v-22.26A2.60791,2.60791,0,0,0,835.629,373.48471Z" transform="translate(-174.73099 -79.58524)" fill="#e6e6e6"/>
  <path d="M835.629,411.43478h-22.27a2.59272,2.59272,0,0,0-2.59,2.6v22.26a2.59282,2.59282,0,0,0,2.59,2.6001h22.27a2.60146,2.60146,0,0,0,2.6001-2.6001v-22.26A2.60135,2.60135,0,0,0,835.629,411.43478Z" transform="translate(-174.73099 -79.58524)" fill="#fff"/>
  <path d="M882.389,259.63486h-22.27a2.599,2.599,0,0,0-2.59,2.59985v22.27a2.59059,2.59059,0,0,0,2.59,2.59009h22.27a2.59927,2.59927,0,0,0,2.6001-2.59009v-22.27A2.60769,2.60769,0,0,0,882.389,259.63486Z" transform="translate(-174.73099 -79.58524)" fill="#6c63ff"/>
  <path d="M882.389,297.58481h-22.27a2.599,2.599,0,0,0-2.59,2.6v22.27a2.59048,2.59048,0,0,0,2.59,2.59h22.27a2.59916,2.59916,0,0,0,2.6001-2.59v-22.27A2.60772,2.60772,0,0,0,882.389,297.58481Z" transform="translate(-174.73099 -79.58524)" fill="#6c63ff"/>
  <path d="M882.389,335.53476h-22.27a2.59915,2.59915,0,0,0-2.59,2.6001v22.26a2.59261,2.59261,0,0,0,2.59,2.59985h22.27a2.60124,2.60124,0,0,0,2.6001-2.59985v-22.26A2.60782,2.60782,0,0,0,882.389,335.53476Z" transform="translate(-174.73099 -79.58524)" fill="#e6e6e6"/>
  <path d="M882.389,373.48471h-22.27a2.59923,2.59923,0,0,0-2.59,2.6001v22.26a2.59271,2.59271,0,0,0,2.59,2.6h22.27a2.60134,2.60134,0,0,0,2.6001-2.6v-22.26A2.60791,2.60791,0,0,0,882.389,373.48471Z" transform="translate(-174.73099 -79.58524)" fill="#fff"/>
  <path d="M882.389,411.43478h-22.27a2.59272,2.59272,0,0,0-2.59,2.6v22.26a2.59282,2.59282,0,0,0,2.59,2.6001h22.27a2.60146,2.60146,0,0,0,2.6001-2.6001v-22.26A2.60135,2.60135,0,0,0,882.389,411.43478Z" transform="translate(-174.73099 -79.58524)" fill="#6c63ff"/>
  <path d="M929.149,259.63486h-22.27a2.599,2.599,0,0,0-2.59,2.59985v22.27a2.59059,2.59059,0,0,0,2.59,2.59009h22.27a2.59916,2.59916,0,0,0,2.6-2.59009v-22.27A2.60759,2.60759,0,0,0,929.149,259.63486Z" transform="translate(-174.73099 -79.58524)" fill="#6c63ff"/>
  <path d="M929.149,297.58481h-22.27a2.599,2.599,0,0,0-2.59,2.6v22.27a2.59048,2.59048,0,0,0,2.59,2.59h22.27a2.59906,2.59906,0,0,0,2.6-2.59v-22.27A2.60761,2.60761,0,0,0,929.149,297.58481Z" transform="translate(-174.73099 -79.58524)" fill="#6c63ff"/>
  <path d="M929.149,335.53476h-22.27a2.59915,2.59915,0,0,0-2.59,2.6001v22.26a2.59261,2.59261,0,0,0,2.59,2.59985h22.27a2.60114,2.60114,0,0,0,2.6-2.59985v-22.26A2.60772,2.60772,0,0,0,929.149,335.53476Z" transform="translate(-174.73099 -79.58524)" fill="#e6e6e6"/>
  <path d="M929.149,373.48471h-22.27a2.59923,2.59923,0,0,0-2.59,2.6001v22.26a2.59271,2.59271,0,0,0,2.59,2.6h22.27a2.60124,2.60124,0,0,0,2.6-2.6v-22.26A2.6078,2.6078,0,0,0,929.149,373.48471Z" transform="translate(-174.73099 -79.58524)" fill="#6c63ff"/>
  <path d="M929.149,411.43478h-22.27a2.59272,2.59272,0,0,0-2.59,2.6v22.26a2.59282,2.59282,0,0,0,2.59,2.6001h22.27a2.60135,2.60135,0,0,0,2.6-2.6001v-22.26A2.60125,2.60125,0,0,0,929.149,411.43478Z" transform="translate(-174.73099 -79.58524)" fill="#6c63ff"/>
  <path d="M975.909,259.63486h-22.27a2.599,2.599,0,0,0-2.59,2.59985v22.27a2.59059,2.59059,0,0,0,2.59,2.59009h22.27a2.59916,2.59916,0,0,0,2.6-2.59009v-22.27A2.60759,2.60759,0,0,0,975.909,259.63486Z" transform="translate(-174.73099 -79.58524)" fill="#e6e6e6"/>
  <path d="M975.909,297.58481h-22.27a2.599,2.599,0,0,0-2.59,2.6v22.27a2.59048,2.59048,0,0,0,2.59,2.59h22.27a2.59906,2.59906,0,0,0,2.6-2.59v-22.27A2.60761,2.60761,0,0,0,975.909,297.58481Z" transform="translate(-174.73099 -79.58524)" fill="#6c63ff"/>
  <path d="M975.909,335.53476h-22.27a2.59915,2.59915,0,0,0-2.59,2.6001v22.26a2.59261,2.59261,0,0,0,2.59,2.59985h22.27a2.60114,2.60114,0,0,0,2.6-2.59985v-22.26A2.60772,2.60772,0,0,0,975.909,335.53476Z" transform="translate(-174.73099 -79.58524)" fill="#6c63ff"/>
  <path d="M975.909,373.48471h-22.27a2.59923,2.59923,0,0,0-2.59,2.6001v22.26a2.59271,2.59271,0,0,0,2.59,2.6h22.27a2.60124,2.60124,0,0,0,2.6-2.6v-22.26A2.6078,2.6078,0,0,0,975.909,373.48471Z" transform="translate(-174.73099 -79.58524)" fill="#6c63ff"/>
  <path d="M975.909,411.43478h-22.27a2.59272,2.59272,0,0,0-2.59,2.6v22.26a2.59282,2.59282,0,0,0,2.59,2.6001h22.27a2.60135,2.60135,0,0,0,2.6-2.6001v-22.26A2.60125,2.60125,0,0,0,975.909,411.43478Z" transform="translate(-174.73099 -79.58524)" fill="#e6e6e6"/>
  <path d="M1022.669,259.63486h-22.27a2.59913,2.59913,0,0,0-2.59009,2.59985v22.27a2.5907,2.5907,0,0,0,2.59009,2.59009h22.27a2.59916,2.59916,0,0,0,2.6-2.59009v-22.27A2.60759,2.60759,0,0,0,1022.669,259.63486Z" transform="translate(-174.73099 -79.58524)" fill="#e6e6e6"/>
  <path d="M1022.669,297.58481h-22.27a2.59916,2.59916,0,0,0-2.59009,2.6v22.27a2.59059,2.59059,0,0,0,2.59009,2.59h22.27a2.59906,2.59906,0,0,0,2.6-2.59v-22.27A2.60761,2.60761,0,0,0,1022.669,297.58481Z" transform="translate(-174.73099 -79.58524)" fill="#e6e6e6"/>
  <path d="M1022.669,335.53476h-22.27a2.59926,2.59926,0,0,0-2.59009,2.6001v22.26a2.59272,2.59272,0,0,0,2.59009,2.59985h22.27a2.60114,2.60114,0,0,0,2.6-2.59985v-22.26A2.60772,2.60772,0,0,0,1022.669,335.53476Z" transform="translate(-174.73099 -79.58524)" fill="#6c63ff"/>
  <path d="M1022.669,373.48471h-22.27a2.59934,2.59934,0,0,0-2.59009,2.6001v22.26a2.59282,2.59282,0,0,0,2.59009,2.6h22.27a2.60124,2.60124,0,0,0,2.6-2.6v-22.26A2.6078,2.6078,0,0,0,1022.669,373.48471Z" transform="translate(-174.73099 -79.58524)" fill="#e6e6e6"/>
  <path d="M1022.669,411.43478h-22.27a2.59283,2.59283,0,0,0-2.59009,2.6v22.26a2.59293,2.59293,0,0,0,2.59009,2.6001h22.27a2.60135,2.60135,0,0,0,2.6-2.6001v-22.26A2.60125,2.60125,0,0,0,1022.669,411.43478Z" transform="translate(-174.73099 -79.58524)" fill="#e6e6e6"/>
  <polygon points="336.095 660.051 335.475 660.051 336.005 659.981 336.095 660.051" fill="#2f2e41"/>
  <path d="M219.629,608.28482a514.11633,514.11633,0,0,0,45.75,48.92h451.97a16.44588,16.44588,0,0,1,16.42,16.43l.65,114.53a355.4301,355.4301,0,0,0,77.47-48.53q9.84-8.085,19.07-16.87,6.045-5.73,11.8-11.74a355.62853,355.62853,0,0,0,68.82-102.74Z" fill="#3f3d56" transform="translate(-174.73099 -79.58524)"/>
  <path d="M842.759,711.02475q-5.74494,6.015-11.79993,11.74H734.749v-11.74Z" transform="translate(-174.73099 -79.58524)" fill="#fff"/>
  <path d="M633.379,335.53476a5.53766,5.53766,0,0,0-4.87-2.8999H300.669a5.55451,5.55451,0,0,0-5.54,5.54992v196.2201H634.05892V338.18478A5.38548,5.38548,0,0,0,633.379,335.53476Z" transform="translate(-174.73099 -79.58524)" fill="#3f3d56"/>
  <path d="M294.83213,529.09239V553.3062a7.64384,7.64384,0,0,0,7.64382,7.64392H427.57266v47.78659h-1.66185a.9929.9929,0,0,0-.993.99292v3.32374a.9929.9929,0,0,0,.993.993h77.6584a.99291.99291,0,0,0,.993-.993v-3.32374a.9929.9929,0,0,0-.993-.99292h-1.66185V560.95012H627.00407a7.64384,7.64384,0,0,0,7.64382-7.64392V529.09239Z" transform="translate(-174.73099 -79.58524)" fill="#3f3d56"/>
  <circle cx="285.90293" cy="348.70373" r="31.30642" fill="#6c63ff"/>
</svg>