<?xml version="1.0" encoding="utf-8"?>
<svg data-name="Layer 1" width="850.53801" height="740.82953" viewBox="0 0 850.53801 740.82953" xmlns="http://www.w3.org/2000/svg">
  <path d="M941.609,465.12478a354.2104,354.2104,0,0,1-98.85,245.9q-5.74494,6.015-11.8,11.74-9.225,8.775-19.07,16.87a353.93418,353.93418,0,0,1-217.58,80.69q-3.97494.09-7.98.09c-63.43,0-143.21-33.87994-215.61-80.78q-8.985-5.82-17.81-11.91-4.125-2.82-8.21-5.72a730.42959,730.42959,0,0,1-79.32-64.8,514.11633,514.11633,0,0,1-45.75-48.92c-55.63-68.62006-67.9-130.45,11.41-143.16q14.085-2.25,27.34-4.81,19.20008-3.69,36.75-7.97,23.64-5.745,44.42005-12.46,6.99-2.25,13.66-4.59c65.74-23.09,109.74-53.19995,139.69-85.87q7.62-8.295,14.05-16.79a236.05512,236.05512,0,0,0,17.83-27.12,254.89845,254.89845,0,0,0,18.41-41.05l.27-.78c23.83-68.74,16.58-132.5,42.87-153.84,112.38-91.23,252.29,38.69,317.96,191.9q4.965,11.58,9.34,23.3,1.965,5.23507,3.79,10.49,4.79992,13.69491,8.71,27.46,1.5,5.25,2.86005,10.49c.97,3.77,1.9,7.53,2.76,11.29C938.139,412.30478,941.609,439.4548,941.609,465.12478Z" transform="translate(-174.73099 -79.58524)" fill="#f2f2f2"/>
  <path d="M601.82894,259.63486h-22.26a2.601,2.601,0,0,0-2.59985,2.59985v22.27a2.59264,2.59264,0,0,0,2.59985,2.59009h22.26a2.59918,2.59918,0,0,0,2.6001-2.59009v-22.27A2.60761,2.60761,0,0,0,601.82894,259.63486Z" transform="translate(-174.73099 -79.58524)" fill="#fff"/>
  <path d="M601.82894,297.58481h-22.26a2.60105,2.60105,0,0,0-2.59985,2.6v22.27a2.59253,2.59253,0,0,0,2.59985,2.59h22.26a2.59907,2.59907,0,0,0,2.6001-2.59v-22.27A2.60763,2.60763,0,0,0,601.82894,297.58481Z" transform="translate(-174.73099 -79.58524)" fill="#e6e6e6"/>
  <path d="M601.82894,335.53476h-22.26a2.60116,2.60116,0,0,0-2.59985,2.6001v22.26a2.59464,2.59464,0,0,0,2.59985,2.59985h22.26a2.60116,2.60116,0,0,0,2.6001-2.59985v-22.26A2.60774,2.60774,0,0,0,601.82894,335.53476Z" transform="translate(-174.73099 -79.58524)" fill="#e6e6e6"/>
  <path d="M604.389,375.62485a2.61714,2.61714,0,0,0-2.56006-2.14014h-22.26a2.60124,2.60124,0,0,0-2.59985,2.6001v22.26a2.59474,2.59474,0,0,0,2.59985,2.6h22.26a2.60126,2.60126,0,0,0,2.6001-2.6v-22.26A2.31271,2.31271,0,0,0,604.389,375.62485Z" transform="translate(-174.73099 -79.58524)" fill="#e6e6e6"/>
  <path d="M602.839,411.63486a2.634,2.634,0,0,0-1.01-.20008h-22.26a2.59475,2.59475,0,0,0-2.59985,2.6v22.26a2.58836,2.58836,0,0,0,2.59985,2.6001h22.26a2.60137,2.60137,0,0,0,2.6001-2.6001v-22.26A2.61575,2.61575,0,0,0,602.839,411.63486Z" transform="translate(-174.73099 -79.58524)" fill="#e6e6e6"/>
  <path d="M648.589,259.63486h-22.26a2.601,2.601,0,0,0-2.59985,2.59985v22.27a2.59264,2.59264,0,0,0,2.59985,2.59009h22.26a2.59918,2.59918,0,0,0,2.6001-2.59009v-22.27A2.60761,2.60761,0,0,0,648.589,259.63486Z" transform="translate(-174.73099 -79.58524)" fill="#e6e6e6"/>
  <path d="M648.589,297.58481h-22.26a2.60105,2.60105,0,0,0-2.59985,2.6v22.27a2.59253,2.59253,0,0,0,2.59985,2.59h22.26a2.59907,2.59907,0,0,0,2.6001-2.59v-22.27A2.60763,2.60763,0,0,0,648.589,297.58481Z" transform="translate(-174.73099 -79.58524)" fill="#6c63ff"/>
  <path d="M648.589,335.53476h-22.26a2.60116,2.60116,0,0,0-2.59985,2.6001v22.26a2.59464,2.59464,0,0,0,2.59985,2.59985h22.26a2.60116,2.60116,0,0,0,2.6001-2.59985v-22.26A2.60774,2.60774,0,0,0,648.589,335.53476Z" transform="translate(-174.73099 -79.58524)" fill="#6c63ff"/>
  <path d="M648.589,373.48471h-22.26a2.59261,2.59261,0,0,0-2.46,1.78,2.47846,2.47846,0,0,0-.13989.82007v22.26a2.59474,2.59474,0,0,0,2.59985,2.6h22.26a2.60126,2.60126,0,0,0,2.6001-2.6v-22.26A2.60782,2.60782,0,0,0,648.589,373.48471Z" transform="translate(-174.73099 -79.58524)" fill="#6c63ff"/>
  <path d="M648.589,411.43478h-22.26a2.59475,2.59475,0,0,0-2.59985,2.6v22.26a2.59485,2.59485,0,0,0,2.59985,2.6001h22.26a2.60137,2.60137,0,0,0,2.6001-2.6001v-22.26A2.60127,2.60127,0,0,0,648.589,411.43478Z" transform="translate(-174.73099 -79.58524)" fill="#e6e6e6"/>
  <path d="M695.349,259.63486h-22.26a2.601,2.601,0,0,0-2.59985,2.59985v22.27a2.59264,2.59264,0,0,0,2.59985,2.59009h22.26a2.59918,2.59918,0,0,0,2.6001-2.59009v-22.27A2.60761,2.60761,0,0,0,695.349,259.63486Z" transform="translate(-174.73099 -79.58524)" fill="#6c63ff"/>
  <path d="M695.349,297.58481h-22.26a2.60105,2.60105,0,0,0-2.59985,2.6v22.27a2.59253,2.59253,0,0,0,2.59985,2.59h22.26a2.59907,2.59907,0,0,0,2.6001-2.59v-22.27A2.60763,2.60763,0,0,0,695.349,297.58481Z" transform="translate(-174.73099 -79.58524)" fill="#6c63ff"/>
  <path d="M695.349,335.53476h-22.26a2.60116,2.60116,0,0,0-2.59985,2.6001v22.26a2.59464,2.59464,0,0,0,2.59985,2.59985h22.26a2.60116,2.60116,0,0,0,2.6001-2.59985v-22.26A2.60774,2.60774,0,0,0,695.349,335.53476Z" transform="translate(-174.73099 -79.58524)" fill="#e6e6e6"/>
  <path d="M695.349,373.48471h-22.26a2.60124,2.60124,0,0,0-2.59985,2.6001v22.26a2.59474,2.59474,0,0,0,2.59985,2.6h22.26a2.60126,2.60126,0,0,0,2.6001-2.6v-22.26A2.60782,2.60782,0,0,0,695.349,373.48471Z" transform="translate(-174.73099 -79.58524)" fill="#6c63ff"/>
  <path d="M695.349,411.43478h-22.26a2.59475,2.59475,0,0,0-2.59985,2.6v22.26a2.59485,2.59485,0,0,0,2.59985,2.6001h22.26a2.60137,2.60137,0,0,0,2.6001-2.6001v-22.26A2.60127,2.60127,0,0,0,695.349,411.43478Z" transform="translate(-174.73099 -79.58524)" fill="#6c63ff"/>
  <path d="M742.109,259.63486h-22.26a2.60113,2.60113,0,0,0-2.6,2.59985v22.27a2.59275,2.59275,0,0,0,2.6,2.59009h22.26a2.59918,2.59918,0,0,0,2.6001-2.59009v-22.27A2.60761,2.60761,0,0,0,742.109,259.63486Z" transform="translate(-174.73099 -79.58524)" fill="#6c63ff"/>
  <path d="M742.109,297.58481h-22.26a2.60116,2.60116,0,0,0-2.6,2.6v22.27a2.59264,2.59264,0,0,0,2.6,2.59h22.26a2.59907,2.59907,0,0,0,2.6001-2.59v-22.27A2.60763,2.60763,0,0,0,742.109,297.58481Z" transform="translate(-174.73099 -79.58524)" fill="#fff"/>
  <path d="M742.109,335.53476h-22.26a2.60126,2.60126,0,0,0-2.6,2.6001v22.26a2.59474,2.59474,0,0,0,2.6,2.59985h22.26a2.60116,2.60116,0,0,0,2.6001-2.59985v-22.26A2.60774,2.60774,0,0,0,742.109,335.53476Z" transform="translate(-174.73099 -79.58524)" fill="#fff"/>
  <path d="M742.109,373.48471h-22.26a2.60134,2.60134,0,0,0-2.6,2.6001v22.26a2.59485,2.59485,0,0,0,2.6,2.6h22.26a2.60126,2.60126,0,0,0,2.6001-2.6v-22.26A2.60782,2.60782,0,0,0,742.109,373.48471Z" transform="translate(-174.73099 -79.58524)" fill="#e6e6e6"/>
  <path d="M742.109,411.43478h-22.26a2.59485,2.59485,0,0,0-2.6,2.6v22.26a2.595,2.595,0,0,0,2.6,2.6001h22.26a2.60137,2.60137,0,0,0,2.6001-2.6001v-22.26A2.60127,2.60127,0,0,0,742.109,411.43478Z" transform="translate(-174.73099 -79.58524)" fill="#6c63ff"/>
  <path d="M788.869,259.63486h-22.27a2.599,2.599,0,0,0-2.59,2.59985v22.27a2.59059,2.59059,0,0,0,2.59,2.59009h22.27a2.59918,2.59918,0,0,0,2.6001-2.59009v-22.27A2.60761,2.60761,0,0,0,788.869,259.63486Z" transform="translate(-174.73099 -79.58524)" fill="#fff"/>
  <path d="M788.869,297.58481h-22.27a2.599,2.599,0,0,0-2.59,2.6v22.27a2.59048,2.59048,0,0,0,2.59,2.59h22.27a2.59907,2.59907,0,0,0,2.6001-2.59v-22.27A2.60763,2.60763,0,0,0,788.869,297.58481Z" transform="translate(-174.73099 -79.58524)" fill="#fff"/>
  <path d="M788.869,335.53476h-22.27a2.59915,2.59915,0,0,0-2.59,2.6001v22.26a2.59261,2.59261,0,0,0,2.59,2.59985h22.27a2.60116,2.60116,0,0,0,2.6001-2.59985v-22.26A2.60774,2.60774,0,0,0,788.869,335.53476Z" transform="translate(-174.73099 -79.58524)" fill="#fff"/>
  <path d="M788.869,373.48471h-22.27a2.59923,2.59923,0,0,0-2.59,2.6001v22.26a2.59271,2.59271,0,0,0,2.59,2.6h22.27a2.60126,2.60126,0,0,0,2.6001-2.6v-22.26A2.60782,2.60782,0,0,0,788.869,373.48471Z" transform="translate(-174.73099 -79.58524)" fill="#6c63ff"/>
  <path d="M788.869,411.43478h-22.27a2.59272,2.59272,0,0,0-2.59,2.6v22.26a2.59282,2.59282,0,0,0,2.59,2.6001h22.27a2.60137,2.60137,0,0,0,2.6001-2.6001v-22.26A2.60127,2.60127,0,0,0,788.869,411.43478Z" transform="translate(-174.73099 -79.58524)" fill="#e6e6e6"/>
  <path d="M835.629,259.63486h-22.27a2.599,2.599,0,0,0-2.59,2.59985v22.27a2.59059,2.59059,0,0,0,2.59,2.59009h22.27a2.59927,2.59927,0,0,0,2.6001-2.59009v-22.27A2.60769,2.60769,0,0,0,835.629,259.63486Z" transform="translate(-174.73099 -79.58524)" fill="#fff"/>
  <path d="M835.629,297.58481h-22.27a2.599,2.599,0,0,0-2.59,2.6v22.27a2.59048,2.59048,0,0,0,2.59,2.59h22.27a2.59916,2.59916,0,0,0,2.6001-2.59v-22.27A2.60772,2.60772,0,0,0,835.629,297.58481Z" transform="translate(-174.73099 -79.58524)" fill="#fff"/>
  <path d="M835.629,335.53476h-22.27a2.59915,2.59915,0,0,0-2.59,2.6001v22.26a2.59261,2.59261,0,0,0,2.59,2.59985h22.27a2.60124,2.60124,0,0,0,2.6001-2.59985v-22.26A2.60782,2.60782,0,0,0,835.629,335.53476Z" transform="translate(-174.73099 -79.58524)" fill="#6c63ff"/>
  <path d="M835.629,373.48471h-22.27a2.59923,2.59923,0,0,0-2.59,2.6001v22.26a2.59271,2.59271,0,0,0,2.59,2.6h22.27a2.60134,2.60134,0,0,0,2.6001-2.6v-22.26A2.60791,2.60791,0,0,0,835.629,373.48471Z" transform="translate(-174.73099 -79.58524)" fill="#e6e6e6"/>
  <path d="M835.629,411.43478h-22.27a2.59272,2.59272,0,0,0-2.59,2.6v22.26a2.59282,2.59282,0,0,0,2.59,2.6001h22.27a2.60146,2.60146,0,0,0,2.6001-2.6001v-22.26A2.60135,2.60135,0,0,0,835.629,411.43478Z" transform="translate(-174.73099 -79.58524)" fill="#fff"/>
  <path d="M882.389,259.63486h-22.27a2.599,2.599,0,0,0-2.59,2.59985v22.27a2.59059,2.59059,0,0,0,2.59,2.59009h22.27a2.59927,2.59927,0,0,0,2.6001-2.59009v-22.27A2.60769,2.60769,0,0,0,882.389,259.63486Z" transform="translate(-174.73099 -79.58524)" fill="#6c63ff"/>
  <path d="M882.389,297.58481h-22.27a2.599,2.599,0,0,0-2.59,2.6v22.27a2.59048,2.59048,0,0,0,2.59,2.59h22.27a2.59916,2.59916,0,0,0,2.6001-2.59v-22.27A2.60772,2.60772,0,0,0,882.389,297.58481Z" transform="translate(-174.73099 -79.58524)" fill="#6c63ff"/>
  <path d="M882.389,335.53476h-22.27a2.59915,2.59915,0,0,0-2.59,2.6001v22.26a2.59261,2.59261,0,0,0,2.59,2.59985h22.27a2.60124,2.60124,0,0,0,2.6001-2.59985v-22.26A2.60782,2.60782,0,0,0,882.389,335.53476Z" transform="translate(-174.73099 -79.58524)" fill="#e6e6e6"/>
  <path d="M882.389,373.48471h-22.27a2.59923,2.59923,0,0,0-2.59,2.6001v22.26a2.59271,2.59271,0,0,0,2.59,2.6h22.27a2.60134,2.60134,0,0,0,2.6001-2.6v-22.26A2.60791,2.60791,0,0,0,882.389,373.48471Z" transform="translate(-174.73099 -79.58524)" fill="#fff"/>
  <path d="M882.389,411.43478h-22.27a2.59272,2.59272,0,0,0-2.59,2.6v22.26a2.59282,2.59282,0,0,0,2.59,2.6001h22.27a2.60146,2.60146,0,0,0,2.6001-2.6001v-22.26A2.60135,2.60135,0,0,0,882.389,411.43478Z" transform="translate(-174.73099 -79.58524)" fill="#6c63ff"/>
  <path d="M929.149,259.63486h-22.27a2.599,2.599,0,0,0-2.59,2.59985v22.27a2.59059,2.59059,0,0,0,2.59,2.59009h22.27a2.59916,2.59916,0,0,0,2.6-2.59009v-22.27A2.60759,2.60759,0,0,0,929.149,259.63486Z" transform="translate(-174.73099 -79.58524)" fill="#6c63ff"/>
  <path d="M929.149,297.58481h-22.27a2.599,2.599,0,0,0-2.59,2.6v22.27a2.59048,2.59048,0,0,0,2.59,2.59h22.27a2.59906,2.59906,0,0,0,2.6-2.59v-22.27A2.60761,2.60761,0,0,0,929.149,297.58481Z" transform="translate(-174.73099 -79.58524)" fill="#6c63ff"/>
  <path d="M929.149,335.53476h-22.27a2.59915,2.59915,0,0,0-2.59,2.6001v22.26a2.59261,2.59261,0,0,0,2.59,2.59985h22.27a2.60114,2.60114,0,0,0,2.6-2.59985v-22.26A2.60772,2.60772,0,0,0,929.149,335.53476Z" transform="translate(-174.73099 -79.58524)" fill="#e6e6e6"/>
  <path d="M929.149,373.48471h-22.27a2.59923,2.59923,0,0,0-2.59,2.6001v22.26a2.59271,2.59271,0,0,0,2.59,2.6h22.27a2.60124,2.60124,0,0,0,2.6-2.6v-22.26A2.6078,2.6078,0,0,0,929.149,373.48471Z" transform="translate(-174.73099 -79.58524)" fill="#6c63ff"/>
  <path d="M929.149,411.43478h-22.27a2.59272,2.59272,0,0,0-2.59,2.6v22.26a2.59282,2.59282,0,0,0,2.59,2.6001h22.27a2.60135,2.60135,0,0,0,2.6-2.6001v-22.26A2.60125,2.60125,0,0,0,929.149,411.43478Z" transform="translate(-174.73099 -79.58524)" fill="#6c63ff"/>
  <path d="M975.909,259.63486h-22.27a2.599,2.599,0,0,0-2.59,2.59985v22.27a2.59059,2.59059,0,0,0,2.59,2.59009h22.27a2.59916,2.59916,0,0,0,2.6-2.59009v-22.27A2.60759,2.60759,0,0,0,975.909,259.63486Z" transform="translate(-174.73099 -79.58524)" fill="#e6e6e6"/>
  <path d="M975.909,297.58481h-22.27a2.599,2.599,0,0,0-2.59,2.6v22.27a2.59048,2.59048,0,0,0,2.59,2.59h22.27a2.59906,2.59906,0,0,0,2.6-2.59v-22.27A2.60761,2.60761,0,0,0,975.909,297.58481Z" transform="translate(-174.73099 -79.58524)" fill="#6c63ff"/>
  <path d="M975.909,335.53476h-22.27a2.59915,2.59915,0,0,0-2.59,2.6001v22.26a2.59261,2.59261,0,0,0,2.59,2.59985h22.27a2.60114,2.60114,0,0,0,2.6-2.59985v-22.26A2.60772,2.60772,0,0,0,975.909,335.53476Z" transform="translate(-174.73099 -79.58524)" fill="#6c63ff"/>
  <path d="M975.909,373.48471h-22.27a2.59923,2.59923,0,0,0-2.59,2.6001v22.26a2.59271,2.59271,0,0,0,2.59,2.6h22.27a2.60124,2.60124,0,0,0,2.6-2.6v-22.26A2.6078,2.6078,0,0,0,975.909,373.48471Z" transform="translate(-174.73099 -79.58524)" fill="#6c63ff"/>
  <path d="M975.909,411.43478h-22.27a2.59272,2.59272,0,0,0-2.59,2.6v22.26a2.59282,2.59282,0,0,0,2.59,2.6001h22.27a2.60135,2.60135,0,0,0,2.6-2.6001v-22.26A2.60125,2.60125,0,0,0,975.909,411.43478Z" transform="translate(-174.73099 -79.58524)" fill="#e6e6e6"/>
  <path d="M1022.669,259.63486h-22.27a2.59913,2.59913,0,0,0-2.59009,2.59985v22.27a2.5907,2.5907,0,0,0,2.59009,2.59009h22.27a2.59916,2.59916,0,0,0,2.6-2.59009v-22.27A2.60759,2.60759,0,0,0,1022.669,259.63486Z" transform="translate(-174.73099 -79.58524)" fill="#e6e6e6"/>
  <path d="M1022.669,297.58481h-22.27a2.59916,2.59916,0,0,0-2.59009,2.6v22.27a2.59059,2.59059,0,0,0,2.59009,2.59h22.27a2.59906,2.59906,0,0,0,2.6-2.59v-22.27A2.60761,2.60761,0,0,0,1022.669,297.58481Z" transform="translate(-174.73099 -79.58524)" fill="#e6e6e6"/>
  <path d="M1022.669,335.53476h-22.27a2.59926,2.59926,0,0,0-2.59009,2.6001v22.26a2.59272,2.59272,0,0,0,2.59009,2.59985h22.27a2.60114,2.60114,0,0,0,2.6-2.59985v-22.26A2.60772,2.60772,0,0,0,1022.669,335.53476Z" transform="translate(-174.73099 -79.58524)" fill="#6c63ff"/>
  <path d="M1022.669,373.48471h-22.27a2.59934,2.59934,0,0,0-2.59009,2.6001v22.26a2.59282,2.59282,0,0,0,2.59009,2.6h22.27a2.60124,2.60124,0,0,0,2.6-2.6v-22.26A2.6078,2.6078,0,0,0,1022.669,373.48471Z" transform="translate(-174.73099 -79.58524)" fill="#e6e6e6"/>
  <path d="M1022.669,411.43478h-22.27a2.59283,2.59283,0,0,0-2.59009,2.6v22.26a2.59293,2.59293,0,0,0,2.59009,2.6001h22.27a2.60135,2.60135,0,0,0,2.6-2.6001v-22.26A2.60125,2.60125,0,0,0,1022.669,411.43478Z" transform="translate(-174.73099 -79.58524)" fill="#e6e6e6"/>
  <polygon points="336.095 660.051 335.475 660.051 336.005 659.981 336.095 660.051" fill="#2f2e41"/>
  <path d="M219.629,608.28482a514.11633,514.11633,0,0,0,45.75,48.92h451.97a16.44588,16.44588,0,0,1,16.42,16.43l.65,114.53a355.4301,355.4301,0,0,0,77.47-48.53q9.84-8.085,19.07-16.87,6.045-5.73,11.8-11.74a355.62853,355.62853,0,0,0,68.82-102.74Z" transform="translate(-174.73099 -79.58524)" fill="#3f3d56"/>
  <path d="M842.759,711.02475q-5.74494,6.015-11.79993,11.74H734.749v-11.74Z" transform="translate(-174.73099 -79.58524)" fill="#fff"/>
  <path d="M633.379,335.53476a5.53766,5.53766,0,0,0-4.87-2.8999H300.669a5.55451,5.55451,0,0,0-5.54,5.54992v196.2201H634.05892V338.18478A5.38548,5.38548,0,0,0,633.379,335.53476Z" transform="translate(-174.73099 -79.58524)" fill="#3f3d56"/>
  <path d="M294.83213,529.09239V553.3062a7.64384,7.64384,0,0,0,7.64382,7.64392H427.57266v47.78659h-1.66185a.9929.9929,0,0,0-.993.99292v3.32374a.9929.9929,0,0,0,.993.993h77.6584a.99291.99291,0,0,0,.993-.993v-3.32374a.9929.9929,0,0,0-.993-.99292h-1.66185V560.95012H627.00407a7.64384,7.64384,0,0,0,7.64382-7.64392V529.09239Z" transform="translate(-174.73099 -79.58524)" fill="#3f3d56"/>
  <circle cx="285.90293" cy="348.70373" r="31.30642" fill="#6c63ff"/>
</svg>